<?xml version="1.0" encoding="UTF-8"?>
<svg width="676px" height="664px" viewBox="0 0 676 664" version="1.1" xmlns="http://www.w3.org/2000/svg" xmlns:xlink="http://www.w3.org/1999/xlink">
    <title>Extra Large@1x</title>
    <g id="Extra-Large" stroke="none" stroke-width="1" fill="none" fill-rule="evenodd">
        <g id="Group" transform="translate(82.000000, 76.000000)" fill="#FFFFFF">
            <path d="M429.29,418.815 C420.708946,420.073749 412.095056,421.097465 403.458,421.885 C402.612237,429.53535 401.651462,437.172547 400.576,444.794 C408.873236,438.429843 416.744439,431.528719 424.139,424.135 C425.88359,422.38859 427.6008,420.61504 429.29,418.815 L429.29,418.815 Z M430.432,244.569 C438.97,253.107 444.688,264.474 446.056,277.139 C461.557,277.54 477.146,277.518 492.85,277.142 C493.463,270.176 493.779,263.125 493.779,255.998 C493.779,207.965 479.533,163.251 455.038,125.862 C426.279,123.252 397.439,122.857 368.882,125.211 C368.565,139.075 363.039,151.669 354.185,161.114 C366.530957,180.337847 376.784648,200.82746 384.771,222.233 C385.591,224.43 386.386,226.63 387.156,228.836 C388.749236,228.697232 390.347732,228.6275 391.947,228.627 C406.948,228.627 420.546,234.723 430.432,244.569 Z M444.992,295.279 C443.231681,302.886409 439.850761,310.024476 435.08,316.206 C431.602702,320.719906 427.444705,324.665702 422.755,327.902 C417.878313,331.265363 412.483528,333.807027 406.785,335.426 C407.78,357.781 407.145,380.477 405.245,403.436 C419.33202,402.035457 433.34765,399.991657 447.248,397.311 C469.077,367.814 484.253,333.088 490.537,295.354 C475.261,295.682 460.086,295.673 444.992,295.279 L444.992,295.279 Z M388.674,337.385 C374.947,336.571 362.588,330.662 353.462,321.502 C344.038,312.075 338.048,299.212 337.554,284.973 C318.679,281.69 299.864,277.562 281.07,272.476 C273.001864,297.89411 264.443937,323.154146 255.401,348.242 C259.450386,350.604343 263.180704,353.475344 266.501,356.785 C276.347,366.631 282.444,380.242 282.444,395.271 C282.444,396.451 282.406,397.621 282.331,398.785 C315.734,404.666 350.701,406.985 386.871,404.879 C388.867,382.048 389.6,359.521 388.674,337.385 L388.674,337.385 Z M339.948,266.93 C342.569671,258.489369 347.208056,250.814446 353.462,244.569 C358.105246,239.921387 363.550921,236.152034 369.536,233.443 C368.957828,231.813153 368.367144,230.187772 367.764,228.567 C360.572,209.298 351.318,190.473 339.685,172.168 C331.908133,176.251472 323.253751,178.379458 314.47,178.368 C312.517,178.368 310.586,178.265 308.686,178.064 C301.76711,203.877895 294.372519,229.561933 286.506,255.103 C304.279,259.892 322.084,263.801 339.948,266.93 L339.948,266.93 Z M417.56,257.441 C411.390809,251.261847 403.190361,247.529171 394.479,246.935 C387.221,246.469 380.214,248.024 373.898,251.661 C369.217312,254.354622 365.197163,258.059431 362.131,262.505 C356.351,270.864 354.47,281.089 356.582,290.869 C358.060991,297.614159 361.442145,303.794142 366.325,308.677 C370.750823,313.082327 376.235095,316.275574 382.251,317.95 C391.138062,320.406058 400.626183,319.395984 408.797,315.124 C412.027351,313.425925 414.984609,311.252729 417.57,308.677 C420.959,305.225 423.513,300.937 425.484,296.487 C428.442,289.73 428.968,281.705 427.09,274.592 C425.3,267.923 422.189,262.104 417.56,257.441 L417.56,257.441 Z M278.131,416.499 L278.031,416.731 C269.688,436.097 250.409,449.698 228.016,449.698 C223.97,449.698 220.026,449.254 216.233,448.415 C210.771715,461.339938 205.171391,474.205684 199.433,487.01 C217.56,491.435 236.507,493.776 255.998,493.776 C301.46,493.776 343.935,481.014 380.051,458.887 C381.976,446.926 383.647,435.03 385.009,423.203 C348.044,425.121 312.301,422.602 278.131,416.499 L278.131,416.499 Z M199.365,441.539 C195.796928,439.319155 192.49708,436.694779 189.531,433.718 C179.685,423.869 173.589,410.271 173.589,395.271 C173.589,392.016 173.876,388.827 174.424,385.732 C134.518,369.051 96.274,347.237 61.798,320.888 C54.612,332.462 47.633,344.63 40.882,357.427 C52.5910641,382.198195 68.4839102,404.764819 87.862,424.135 C113.894,450.168 145.941,470.188 181.738,481.946 C187.765257,468.543638 193.641297,455.073783 199.365,441.539 L199.365,441.539 Z M180.583,368.562 C183.018047,364.248884 186.028291,360.286921 189.531,356.785 C199.377,346.94 212.988,340.843 228.016,340.843 C231.55,340.843 235.005,341.181 238.353,341.826 C247.229742,317.199005 255.634613,292.40447 263.563,267.456 C238.842,259.961 214.152,250.744 189.4,239.549 C179.153,253.435 162.982,261.707 145.597,261.707 C134.110479,261.72543 122.916443,258.085967 113.637,251.316 C99.144,267.444 85.217,285.342 71.951,305.149 C103.976,329.724 140.49,351.568 180.583,368.562 L180.583,368.562 Z M253.629,369.658 C246.813,362.841 237.656,359.064 228.016,359.064 C218.017,359.064 208.96,363.12 202.413,369.667 C201.088404,370.993553 199.867491,372.419734 198.761,373.933 C193.937,380.577 191.506,388.589 191.844,396.892 C192.2333,405.930662 195.997782,414.494769 202.394,420.893 C203.376,421.873 204.422,422.796 205.508,423.657 C212.046,428.764 219.729,431.478043 228.016,431.478043 C237.623839,431.492727 246.842781,427.684332 253.639,420.893 C255.616631,418.909278 257.358815,416.704034 258.831,414.321 C262.971,407.589 264.79,399.824 264.07,391.935 C263.278,383.268 259.432,375.476 253.629,369.658 L253.629,369.658 Z M194.066,182.496 C197.99436,190.165774 200.037188,198.661732 200.025,207.279 C200.025,212.853 199.183,218.236 197.618,223.306 C221.447,234.044 245.211,242.891 268.996,250.096 C276.859409,224.581917 284.247686,198.923815 291.157,173.135 C285.524155,170.458834 280.392078,166.836311 275.984,162.425 L275.984,162.388 C271.613553,158.014438 268.015944,152.931802 265.344,147.356 C247.137853,153.952601 229.492209,162.003931 212.578,171.432 C206.29807,174.93403 200.124626,178.62369 194.066,182.496 L194.066,182.496 Z M100.887,238.285 C94.5473856,229.189461 91.1550301,218.365899 91.169,207.279 C91.169,200.134 92.55,193.309 95.053,187.056 C77.897,175.667 60.659,163.192 43.324,149.553 C27.262,181.579 18.221,217.732 18.221,255.998 L18.227,257.266 C30.326,269.807 43.505,282.043 57.67,293.767 C71.412,273.374 85.849,254.925 100.887,238.285 Z M104.54,171.551 C105.365524,170.602832 106.223363,169.68329 107.112,168.794 C116.958,158.948 130.569,152.852 145.597,152.852 C160.144,152.852 173.37,158.585 183.171,167.909 C207.372652,152.331461 233.268214,139.558303 260.358,129.836 C260.146517,127.877795 260.04103,125.909591 260.042,123.94 C260.025771,112.910326 263.375608,102.138309 269.644,93.063 C244.112,71.406 213.689,50.81 177.651,31.434 C143.5,43.349 112.902,62.821 87.862,87.862 C74.1711555,101.551003 62.1965222,116.854759 52.202,133.436 C69.753,147.343 87.188,160.018 104.54,171.551 L104.54,171.551 Z M165.893,177.275 C159.900055,173.224531 152.830368,171.063845 145.597,171.071966 C137.111615,171.060311 128.893703,174.040274 122.388,179.488 C116.413,184.502 112.148,191.296 110.367,198.889 C109.715116,201.637971 109.387218,204.453794 109.389982,207.279 C109.389982,212.719 110.586,217.879 112.723,222.505 C115.881,229.362 121.067,234.945 127.57,238.695 C133.056611,241.841031 139.272416,243.492993 145.597,243.486046 C155.204458,243.501277 164.423174,239.693187 171.219,232.902 C176.399,227.722 180.017,220.872 181.247,213.648 C181.61,211.58 181.804,209.448 181.804,207.279 C181.804,203.277 181.156,199.424 179.957,195.828 C177.469,188.292 172.396,181.648 165.893,177.275 L165.893,177.275 Z M314.47,69.512 C315.08,69.512 315.687,69.522 316.291,69.544 C319.27811,55.8400363 322.141892,42.1094808 324.882,28.354 C303.074,21.767 279.953,18.221 255.998,18.221 C237.521,18.221 219.535,20.327 202.266,24.317 C233.002,41.95 259.538,60.546 282.347,80 C291.662693,73.1687257 302.918025,69.4939158 314.47,69.512 L314.47,69.512 Z M334.13,73.183 C341.176045,75.9257156 347.574068,80.1050168 352.917,85.455 L352.955,85.455 C359.050775,91.544069 363.613889,98.9933163 366.269,107.19 C391.055,105.093 416.03,104.993 440.97,106.568 C435.69123,100.042128 430.073149,93.7981843 424.139,87.862 C401.045,64.771 373.219,46.41 342.245,34.348 C339.648242,47.3153823 336.943147,60.2608345 334.13,73.183 L334.13,73.183 Z M340.083,98.327 C327.358,85.596 307.199,84.406 293.075,94.725 C290.259,96.765 287.598,99.447 285.549,102.152 C281.531237,107.477144 279.066504,113.810828 278.428,120.451 C277.624,128.848 279.721,137.178 284.425,144.173 C287.416584,148.597627 291.341268,152.313072 295.923,155.058 L295.923,155.052 C298.255875,156.442131 300.737839,157.565204 303.322,158.4 C308.044,159.95 313.205,160.453 318.141,159.966 C321.214271,159.660861 324.235261,158.960064 327.129,157.881 C332.586451,155.847492 337.472464,152.5268 341.372,148.201 C342.457936,146.996203 343.462806,145.72074 344.38,144.383 C347.219955,140.239602 349.158115,135.545977 350.069,130.606 C351.481,122.898 350.417,114.849 346.905,107.825 C345.158262,104.311715 342.854483,101.104255 340.083,98.327 L340.083,98.327 Z M255.998,0 C326.688,0 390.695,28.658 437.02,74.98 C483.342,121.305 512,185.309 512,255.998 C512,326.688 483.342,390.692 437.02,437.017 C390.695,483.339 326.688,511.997 255.998,511.997 C185.309,511.997 121.305,483.339 74.98,437.017 C28.655,390.692 0,326.688 0,255.998 C0,213.398 10.412,173.229 28.821,137.892 L28.501,137.629 L29.766,136.093 C41.7226536,113.592115 56.9608426,92.9955864 74.98,74.98 C121.305,28.655 185.309,0 255.998,0 Z M19.951,284.797 C22.0437191,302.172856 26.0606992,319.262378 31.928,335.751 C36.8828802,326.866087 42.0611954,318.107632 47.458,309.484 C37.9598212,301.629329 28.7833169,293.393594 19.951,284.797 L19.951,284.797 Z" id="Shape"></path>
        </g>
    </g>
</svg>