<?xml version="1.0" encoding="UTF-8"?>
<svg width="676px" height="664px" viewBox="0 0 676 664" version="1.1" xmlns="http://www.w3.org/2000/svg" xmlns:xlink="http://www.w3.org/1999/xlink">
    <title>Extra Large@1x</title>
    <defs>
        <radialGradient cx="50.0000753%" cy="50.0000762%" fx="50.0000753%" fy="50.0000762%" r="52.6746275%" id="radialGradient-1">
            <stop stop-color="#FFFFFF" offset="0%"></stop>
            <stop stop-color="#FFFFFF" stop-opacity="0" offset="100%"></stop>
        </radialGradient>
    </defs>
    <g id="Extra-Large" stroke="none" stroke-width="1" fill="none" fill-rule="evenodd">
        <g id="hero-bg" transform="translate(5.796900, -0.062012)" fill="url(#radialGradient-1)" fill-rule="nonzero">
            <path d="M663.459,503.147012 L663.459,332.939012 L663.999,332.939012 L663.999,331.060012 L663.459,331.060012 L663.459,160.853012 C663.449,119.111012 647.205,79.009412 618.163,49.027812 L618.163,45.939512 L663.459,45.939512 L663.459,44.047812 L619.475,44.047812 L661.709,1.582792 L660.422,0.295972 L618.201,42.761012 L618.201,1.209612 L616.323,1.209612 L616.323,44.047812 L613.131,44.047812 C583.581,15.800312 544.283,0.024895 503.404,0 L160.042,0 C119.18,0.038128 79.9032,15.812512 50.3661,44.047812 L47.162,44.047812 L47.162,1.209612 L45.2961,1.209612 L45.2961,42.722412 L3.0755,0.257362 L1.78868,1.544182 L44.0092,44.009212 L2.67659,44.009212 L2.67659,45.888012 L45.2961,45.888012 L45.2961,49.027812 C16.25,79.007112 0,119.110012 0,160.853012 L0,503.147012 C0,544.889012 16.25,584.992012 45.2961,614.971012 L45.2961,618.111012 L2.67659,618.111012 L2.67659,619.990012 L43.9706,619.990012 L1.75008,662.455012 L3.0369,663.742012 L45.2575,621.277012 L45.2575,662.790012 L47.1234,662.790012 L47.1234,619.951012 L50.3275,619.951012 C79.8742,648.196012 119.167,663.971012 160.042,663.999012 L503.404,663.999012 C544.27,663.964012 583.552,648.190012 613.093,619.951012 L616.284,619.951012 L616.284,662.790012 L618.163,662.790012 L618.163,621.277012 L660.383,663.742012 L661.67,662.455012 L619.437,619.990012 L663.999,619.990012 L663.999,618.111012 L618.163,618.111012 L618.163,614.971012 C647.198,584.985012 663.441,544.887012 663.459,503.147012 Z M661.58,503.147012 C661.577,543.724012 646.041,582.760012 618.163,612.243012 L618.163,450.966012 L660.911,450.966012 L660.911,449.100012 L618.163,449.100012 L618.163,332.939012 L661.58,332.939012 L661.58,503.147012 Z M449.525,449.100012 L448.238,447.813012 C450.374,445.643012 452.446,443.412012 454.453,441.122012 L454.453,449.100012 L449.525,449.100012 Z M454.453,450.979012 L454.453,454.055012 L451.391,450.979012 L454.453,450.979012 Z M210.073,449.100012 L210.073,442.344012 C211.746,444.210012 213.471,446.025012 215.221,447.813012 L213.934,449.100012 L210.073,449.100012 Z M212.068,450.979012 L210.073,452.961012 L210.073,450.966012 L212.068,450.979012 Z M213.934,214.899012 L215.221,216.186012 C213.471,217.974012 211.746,219.802012 210.073,221.655012 L210.073,214.899012 L213.934,214.899012 Z M210.073,213.020012 L210.073,211.039012 L212.068,213.033012 L210.073,213.020012 Z M454.453,214.899012 L454.453,222.877012 C452.446,220.587012 450.374,218.356012 448.238,216.186012 L449.525,214.899012 L454.453,214.899012 Z M451.391,213.020012 L454.453,209.945012 L454.453,213.020012 L451.391,213.020012 Z M454.453,331.047012 L450.052,331.047012 C449.857,300.174012 437.666,270.586012 416.055,248.536012 L446.938,217.524012 C449.512,220.158012 452.026,222.890012 454.479,225.721012 L454.453,331.047012 Z M456.319,227.947012 C480.321,256.956012 493.511,293.396012 493.637,331.047012 L456.319,331.047012 L456.319,227.947012 Z M414.729,249.823012 C436.001,271.509012 448,300.620012 448.187,330.996012 L333.981,330.996012 L414.729,249.823012 Z M332.669,329.606012 L332.669,214.899012 C362.941,215.110012 391.925,227.177012 413.404,248.511012 L332.669,329.606012 Z M330.79,329.606012 L250.042,248.421012 C271.545,227.126012 300.528,215.094012 330.79,214.899012 L330.79,329.606012 Z M329.503,330.893012 L215.272,330.893012 C215.466,300.518012 227.464,271.410012 248.729,249.720012 L329.503,330.893012 Z M329.503,332.772012 L248.755,413.944012 C227.49,392.255012 215.492,363.146012 215.298,332.772012 L329.503,332.772012 Z M330.79,334.059012 L330.79,449.100012 C300.512,448.888012 271.523,436.816012 250.042,415.476012 L330.79,334.059012 Z M332.669,334.059012 L413.404,415.231012 C391.969,436.663012 362.979,448.825012 332.669,449.100012 L332.669,334.059012 Z M333.956,332.772012 L448.148,332.772012 C447.961,363.148012 435.962,392.259012 414.691,413.944012 L333.956,332.772012 Z M445.587,216.186012 L414.704,247.211012 C397.752,230.394012 376.09,219.125012 352.589,214.899012 L444.275,214.899012 L445.587,216.186012 Z M332.669,213.020012 L332.669,169.178012 C373.451,169.378012 412.636,185.052012 442.306,213.033012 L332.669,213.020012 Z M330.79,213.020012 L221.153,213.020012 C250.817,185.031012 290.006,169.356012 330.79,169.165012 L330.79,213.020012 Z M310.857,214.899012 C287.349,219.126012 265.678,230.394012 248.717,247.211012 L217.833,216.186012 L219.12,214.899012 L310.857,214.899012 Z M216.546,217.473012 L247.43,248.485012 C225.809,270.528012 213.615,300.120012 213.432,330.996012 L210.099,330.996012 L210.099,224.499012 C212.171,222.118012 214.32,219.789012 216.546,217.537012 L216.546,217.473012 Z M208.208,330.996012 L169.77,330.996012 C169.914,292.768012 183.523,255.813012 208.208,226.622012 L208.208,330.996012 Z M208.208,332.875012 L208.208,437.249012 C183.523,408.058012 169.914,371.103012 169.77,332.875012 L208.208,332.875012 Z M210.073,332.875012 L213.406,332.875012 C213.587,363.747012 225.781,393.336012 247.404,415.373012 L216.52,446.398012 C214.294,444.146012 212.145,441.817012 210.086,439.436012 L210.073,332.875012 Z M217.872,447.813012 L248.755,416.788012 C265.707,433.599012 287.362,444.866012 310.857,449.100012 L219.184,449.100012 L217.872,447.813012 Z M330.79,450.979012 L330.79,494.834012 C290.006,494.643012 250.817,478.968012 221.153,450.979012 L330.79,450.979012 Z M332.669,450.979012 L442.306,450.979012 C412.636,478.960012 373.451,494.634012 332.669,494.834012 L332.669,450.979012 Z M352.589,449.100012 C376.099,444.879012 397.771,433.610012 414.729,416.788012 L445.613,447.813012 L444.326,449.100012 L352.589,449.100012 Z M446.913,446.527012 L416.029,415.501012 C437.643,393.459012 449.835,363.874012 450.027,333.003012 L454.428,333.003012 L454.428,438.330012 C452.026,441.109012 449.521,443.841012 446.913,446.527012 Z M456.319,333.003012 L493.637,333.003012 C493.511,370.654012 480.321,407.094012 456.319,436.103012 L456.319,333.003012 Z M495.554,331.125012 C495.411,292.263012 481.511,254.707012 456.319,225.116012 L456.319,214.899012 L555.276,214.899012 C573.903,250.787012 583.668,290.613012 583.753,331.047012 L495.554,331.125012 Z M456.319,213.097012 L456.319,208.130012 L510.597,153.582012 C527.98,171.188012 542.698,191.238012 554.285,213.097012 L456.319,213.097012 Z M456.319,205.479012 L456.319,111.722012 C475.677,122.814012 493.482,136.417012 509.272,152.179012 L456.319,205.479012 Z M454.453,207.358012 L448.753,213.097012 L445.034,213.097012 C414.881,183.919012 374.627,167.508012 332.669,167.287012 L332.669,78.650412 C375.332,78.744112 417.26,89.766612 454.453,110.667012 L454.453,207.358012 Z M330.79,167.287012 C288.842,167.485012 248.589,183.868012 218.425,213.020012 L214.706,213.020012 L210.073,208.362012 L210.073,110.049012 C247.008,89.537012 288.542,78.729612 330.79,78.637612 L330.79,167.287012 Z M208.208,206.496012 L154.161,152.179012 C170.252,136.129012 188.431,122.317012 208.208,111.117012 L208.208,206.496012 Z M208.208,209.160012 L208.208,213.020012 L109.122,213.020012 C120.705,191.158012 135.424,171.107012 152.81,153.505012 L208.208,209.160012 Z M208.208,214.912012 L208.208,223.791012 C182.35,253.562012 168.043,291.628012 167.891,331.060012 L79.7056,331.060012 C79.789,290.622012 89.5537,250.791012 108.183,214.899012 L208.208,214.912012 Z M167.891,332.939012 C168.043,372.371012 182.35,410.438012 208.208,440.208012 L208.208,449.100012 L108.183,449.100012 C89.5557,413.212012 79.7911,373.386012 79.7056,332.952012 L167.891,332.939012 Z M208.208,450.966012 L208.208,454.827012 L152.874,510.456012 C135.488,492.853012 120.77,472.803012 109.187,450.940012 L208.208,450.966012 Z M208.208,457.503012 L208.208,552.882012 C188.431,541.682012 170.252,527.870012 154.161,511.820012 L208.208,457.503012 Z M210.073,455.624012 L214.706,450.966012 L218.425,450.966012 C248.587,480.123012 288.84,496.511012 330.79,496.713012 L330.79,585.375012 C288.542,585.272012 247.009,574.460012 210.073,553.950012 L210.073,455.624012 Z M332.669,496.713012 C374.617,496.512012 414.869,480.129012 445.034,450.979012 L448.753,450.979012 L454.453,456.718012 L454.453,553.333012 C417.259,574.231012 375.332,585.257012 332.669,585.362012 L332.669,496.713012 Z M456.319,458.597012 L509.272,511.833012 C493.476,527.588012 475.672,541.191012 456.319,552.290012 L456.319,458.597012 Z M456.319,455.946012 L456.319,450.979012 L554.285,450.979012 C542.698,472.839012 527.98,492.889012 510.597,510.494012 L456.319,455.946012 Z M456.319,449.100012 L456.319,438.960012 C481.511,409.369012 495.411,371.814012 495.554,332.952012 L583.753,332.952012 C583.668,373.386012 573.903,413.212012 555.276,449.100012 L456.319,449.100012 Z M585.619,332.952012 L616.284,332.952012 L616.284,449.100012 L557.386,449.100012 C575.862,413.162012 585.539,373.349012 585.619,332.939012 L585.619,332.952012 Z M585.619,331.073012 C585.541,290.659012 575.864,250.842012 557.386,214.899012 L616.284,214.899012 L616.284,331.047012 L585.619,331.073012 Z M556.395,213.046012 C544.651,190.681012 529.664,170.175012 511.923,152.192012 L615.1,48.513112 L615.19,48.590312 C615.576,48.989212 615.962,49.413912 616.348,49.877112 L616.348,213.033012 L556.395,213.046012 Z M613.685,47.213412 L510.597,150.854012 C494.435,134.722012 476.179,120.833012 456.319,109.560012 L456.319,45.926612 L612.346,45.926612 L613.685,47.213412 Z M454.453,108.518012 C417.202,87.791712 375.298,76.864112 332.669,76.758812 L332.669,45.875112 L454.453,45.875112 L454.453,108.518012 Z M332.669,44.047812 L332.669,1.878752 L454.453,1.878752 L454.453,44.047812 L332.669,44.047812 Z M330.79,44.047812 L210.073,44.047812 L210.073,1.878752 L330.79,1.878752 L330.79,44.047812 Z M330.79,45.926612 L330.79,76.810312 C288.576,76.909112 247.064,87.622312 210.073,107.964012 L210.073,45.926612 L330.79,45.926612 Z M208.208,108.981012 C187.938,120.352012 169.32,134.445012 152.874,150.867012 L49.7871,47.226312 L51.0739,45.939512 L208.208,45.939512 L208.208,108.981012 Z M48.333,48.590312 L48.4102,48.513112 L151.536,152.179012 C133.787,170.158012 118.796,190.665012 107.051,213.033012 L47.162,213.033012 L47.162,49.825712 C47.6124,49.413912 47.9341,48.989212 48.333,48.590312 Z M106.073,214.899012 C87.5987,250.834012 77.9223,290.642012 77.8398,331.047012 L47.162,331.047012 L47.162,214.899012 L106.073,214.899012 Z M77.8398,332.926012 C77.9183,373.340012 87.5948,413.158012 106.073,449.100012 L47.162,449.100012 L47.162,332.939012 L77.8398,332.926012 Z M107.051,450.953012 C118.796,473.321012 133.787,493.828012 151.536,511.807012 L48.4102,615.486012 L48.333,615.409012 C47.9341,615.010012 47.5609,614.585012 47.162,614.122012 L47.162,450.966012 L107.051,450.953012 Z M49.7742,616.786012 L152.861,513.145012 C169.311,529.568012 187.927,543.664012 208.195,555.044012 L208.195,618.098012 L51.1125,618.098012 L49.7742,616.786012 Z M210.073,556.087012 C247.064,576.428012 288.576,587.142012 330.79,587.240012 L330.79,618.124012 L210.073,618.124012 L210.073,556.087012 Z M330.79,619.951012 L330.79,662.120012 L210.073,662.120012 L210.073,619.951012 L330.79,619.951012 Z M332.669,619.951012 L454.453,619.951012 L454.453,662.120012 L332.669,662.120012 L332.669,619.951012 Z M332.669,618.073012 L332.669,587.189012 C375.298,587.084012 417.202,576.156012 454.453,555.430012 L454.453,618.021012 L332.669,618.073012 Z M456.319,554.439012 C476.179,543.166012 494.435,529.278012 510.597,513.145012 L613.685,616.786012 L612.398,618.073012 L456.319,618.073012 L456.319,554.439012 Z M615.1,615.409012 L615.01,615.486012 L511.897,511.820012 C529.639,493.837012 544.625,473.331012 556.37,450.966012 L616.258,450.966012 L616.258,614.174012 L615.1,615.409012 Z M661.58,160.853012 L661.58,331.060012 L618.163,331.060012 L618.163,214.899012 L660.911,214.899012 L660.911,213.020012 L618.163,213.020012 L618.163,51.794512 C646.032,81.268112 661.567,120.289012 661.58,160.853012 Z M610.39,44.009212 L456.319,44.009212 L456.319,1.878752 L503.404,1.878752 C543.114,1.908082 581.34,16.974912 610.39,44.047812 L610.39,44.009212 Z M160.003,1.840152 L208.208,1.840152 L208.208,44.009212 L53.0685,44.009212 C82.1211,16.952212 120.341,1.899562 160.042,1.878752 L160.003,1.840152 Z M1.86589,503.147012 L1.86589,160.853012 C1.87391,120.274012 17.4138,81.237912 45.2961,51.755912 L45.2961,212.994012 L2.57364,212.994012 L2.57364,214.899012 L45.2961,214.899012 L45.2961,331.047012 L2.41922,331.047012 L2.41922,332.926012 L45.2961,332.926012 L45.2961,449.100012 L2.57364,449.100012 L2.57364,450.979012 L45.2961,450.979012 L45.2961,612.218012 C17.4199,582.742012 1.88049,543.716012 1.86589,503.147012 Z M53.0685,619.990012 L208.208,619.990012 L208.208,662.159012 L160.042,662.159012 C120.331,662.117012 82.1092,647.037012 53.0685,619.951012 L53.0685,619.990012 Z M503.456,662.159012 L456.319,662.159012 L456.319,619.951012 L610.39,619.951012 C581.338,647.022012 543.114,662.089012 503.404,662.120012 L503.456,662.159012 Z" id="Shape"></path>
        </g>
    </g>
</svg>