<?xml version="1.0" encoding="UTF-8"?>
<svg width="676px" height="664px" viewBox="0 0 676 664" version="1.1" xmlns="http://www.w3.org/2000/svg" xmlns:xlink="http://www.w3.org/1999/xlink">
    <title>Extra Large Copy@1x</title>
    <g id="Extra-Large-Copy" stroke="none" stroke-width="1" fill="none" fill-rule="evenodd">
        <g id="Group" transform="translate(20.000000, 41.000000)" fill="#AFCFFF" fill-rule="nonzero">
            <path d="M202.683594,0 L391.133789,0 C416.036338,0.0576135552 436.209681,20.4766439 436.266602,45.6824756 L436.266602,165.337033 C436.209681,190.542865 416.036338,210.961895 391.133789,211.019509 L280.682617,211.019509 L212.207031,270.689623 C209.017958,273.44703 204.225722,273.072105 201.493164,269.851413 C200.275618,268.388751 199.630992,266.524532 199.681641,264.612597 L203.356445,211.28145 L202.735352,211.28145 C177.832803,211.223836 157.659459,190.804806 157.602539,165.598974 L157.602539,45.6824756 C157.659332,20.4970226 177.80126,0.0863835458 202.683594,0 L202.683594,0 Z M266.604492,466.988059 C277.266602,449.647578 281.09668,422.300959 269.50293,404.122267 C264.844727,396.840313 266.708008,385.052977 266.708008,375.046838 C266.708008,275.509334 94.6650391,275.509334 94.6650391,375.046838 C94.6650391,387.51522 97.4599609,396.002102 90.8349609,406.008241 C79.5,422.562899 85.3486328,451.900269 94.8720703,467.145224 C104.550781,495.644383 141.454102,512.199041 109.881836,541.85074 C78.3095703,571.502439 12.8876953,534.359233 0,623 L636,623 C624.250977,551.385385 568.714844,587.847545 545.630859,556.10032 C526.118164,529.591911 550.806641,524.19593 558.466797,501.040363 C566.126953,488.833922 570.836914,465.25925 561.727539,451.952657 C556.551758,444.042045 558.62207,435.817104 558.62207,425.758577 C558.62207,345.65708 423.792969,345.65708 423.792969,425.758577 C423.792969,433.721578 425.293945,444.565927 421.567383,450.381012 C412.250977,465.049697 415.356445,487.052725 423.896484,500.935587 C430.210938,523.410108 455.624023,534.044904 439.423828,556.676589 C423.223633,579.308274 385.647461,574.960057 362.356445,588.633367 C337.719727,558.09107 279.802734,569.4593 253.975586,540.43626 C225.301758,508.217541 258.375,496.954087 266.811523,467.092836 L266.604492,466.988059 Z M458.418945,93.0413724 C467.110715,94.7509152 475.097038,99.0572955 481.347656,105.404978 C489.602559,113.13339 494.308982,123.989408 494.338899,135.371006 L494.338899,237.947023 C494.367933,262.640951 474.689192,282.723196 450.292969,282.896065 L448.688477,282.896065 L453.398438,345.133199 L372.65625,280.957703 L249.420898,280.957703 L294.087891,235.013286 L420.998047,235.013286 C441.698606,234.955724 458.465591,217.984538 458.522461,197.03187 L458.522461,96.0798856 C458.522461,95.0321224 458.522461,94.0367474 458.522461,93.0413724 L458.418945,93.0413724 Z M224.939453,133.118315 C220.966259,132.786902 217.908426,129.426277 217.908426,125.391061 C217.908426,121.355846 220.966259,117.99522 224.939453,117.663808 L336.943359,117.663808 C340.916554,117.99522 343.974387,121.355846 343.974387,125.391061 C343.974387,129.426277 340.916554,132.786902 336.943359,133.118315 L224.939453,133.118315 Z M224.939453,81.9350824 C220.651696,81.9350824 217.175781,78.4168357 217.175781,74.0768584 C217.175781,69.7368811 220.651696,66.2186344 224.939453,66.2186344 L370.223633,66.2186344 C374.51139,66.2186344 377.987305,69.7368811 377.987305,74.0768584 C377.987305,78.4168357 374.51139,81.9350824 370.223633,81.9350824 L224.939453,81.9350824 Z M391.082031,15.4021191 L202.683594,15.4021191 C186.185017,15.459605 172.824372,28.9829659 172.767578,45.6824756 L172.767578,165.337033 C172.824372,182.036543 186.185017,195.559904 202.683594,195.61739 L211.430664,195.61739 C213.542163,195.625935 215.555193,196.522256 216.988207,198.091939 C218.421222,199.661623 219.145326,201.763481 218.987305,203.894719 L216.037109,247.062563 L272.556641,197.870081 C273.939474,196.485352 275.78822,195.68071 277.732422,195.61739 L391.082031,195.61739 C407.580608,195.559904 420.941253,182.036543 420.998047,165.337033 L420.998047,45.6824756 C420.941253,28.9829659 407.580608,15.459605 391.082031,15.4021191 Z" id="Shape"></path>
        </g>
    </g>
</svg>